<?xml version="1.0" standalone="no"?><!DOCTYPE svg PUBLIC "-//W3C//DTD SVG 1.1//EN" "http://www.w3.org/Graphics/SVG/1.1/DTD/svg11.dtd"><svg t="1706940643981" class="icon" viewBox="0 0 1024 1024" version="1.1" xmlns="http://www.w3.org/2000/svg" p-id="4006" xmlns:xlink="http://www.w3.org/1999/xlink" width="200" height="200"><path d="M142.464 112.896A32 32 0 0 1 170.666667 96h640a32 32 0 0 1 32 32v768a32 32 0 0 1-32 32H256a32 32 0 0 1-32-32V281.856a53.333333 53.333333 0 0 0-8.96-29.610667L144.042667 145.749333a32 32 0 0 1-1.578667-32.853333zM230.4 160l37.845333 56.746667c12.842667 19.285333 19.712 41.941333 19.712 65.109333V864h490.666667V160H230.442667z" fill="#333333" p-id="4007"></path><path d="M224 896a32 32 0 0 1 32-32h554.666667a32 32 0 0 1 0 64H256a32 32 0 0 1-32-32zM576 693.333333v-362.666666a21.333333 21.333333 0 1 1 42.666667 0v362.666666a21.333333 21.333333 0 0 1-42.666667 0z" fill="#333333" p-id="4008"></path><path d="M586.666667 320a10.666667 10.666667 0 0 1 10.666666-10.666667h85.333334a10.666667 10.666667 0 1 1 0 21.333334h-85.333334a10.666667 10.666667 0 0 1-10.666666-10.666667zM586.666667 362.666667a10.666667 10.666667 0 0 1 10.666666-10.666667h42.666667a10.666667 10.666667 0 1 1 0 21.333333h-42.666667a10.666667 10.666667 0 0 1-10.666666-10.666666zM586.666667 405.333333a10.666667 10.666667 0 0 1 10.666666-10.666666h42.666667a10.666667 10.666667 0 1 1 0 21.333333h-42.666667a10.666667 10.666667 0 0 1-10.666666-10.666667zM586.666667 448a10.666667 10.666667 0 0 1 10.666666-10.666667h85.333334a10.666667 10.666667 0 1 1 0 21.333334h-85.333334a10.666667 10.666667 0 0 1-10.666666-10.666667zM586.666667 490.666667a10.666667 10.666667 0 0 1 10.666666-10.666667h42.666667a10.666667 10.666667 0 1 1 0 21.333333h-42.666667a10.666667 10.666667 0 0 1-10.666666-10.666666zM586.666667 533.333333a10.666667 10.666667 0 0 1 10.666666-10.666666h42.666667a10.666667 10.666667 0 1 1 0 21.333333h-42.666667a10.666667 10.666667 0 0 1-10.666666-10.666667zM586.666667 576a10.666667 10.666667 0 0 1 10.666666-10.666667h85.333334a10.666667 10.666667 0 1 1 0 21.333334h-85.333334a10.666667 10.666667 0 0 1-10.666666-10.666667zM586.666667 618.666667a10.666667 10.666667 0 0 1 10.666666-10.666667h42.666667a10.666667 10.666667 0 1 1 0 21.333333h-42.666667a10.666667 10.666667 0 0 1-10.666666-10.666666zM586.666667 661.333333a10.666667 10.666667 0 0 1 10.666666-10.666666h42.666667a10.666667 10.666667 0 1 1 0 21.333333h-42.666667a10.666667 10.666667 0 0 1-10.666666-10.666667zM586.666667 704a10.666667 10.666667 0 0 1 10.666666-10.666667h85.333334a10.666667 10.666667 0 1 1 0 21.333334h-85.333334a10.666667 10.666667 0 0 1-10.666666-10.666667z" fill="#333333" p-id="4009"></path></svg>